<svg width="23" height="27" viewBox="0 0 23 27" fill="none" xmlns="http://www.w3.org/2000/svg">
<path d="M4.16016 19.8557C4.16016 20.5412 4.71973 21.1008 5.4082 21.1008H6.83496V24.6281C6.83496 25.5217 7.55273 26.2512 8.43457 26.2512C9.31934 26.2512 10.0342 25.5246 10.0342 24.6281V21.0978H12.5244V24.6252C12.5244 25.5187 13.2422 26.2482 14.124 26.2482C15.0088 26.2482 15.7236 25.5217 15.7236 24.6252V21.0978H17.1504C17.8389 21.0978 18.3984 20.5383 18.3984 19.8527V8.27461H4.16016V19.8557V19.8557ZM14.6221 2.27461L15.9375 0.370309C16.0137 0.258981 15.9961 0.109567 15.8936 0.0363245C15.791 -0.033988 15.6445 0.00116839 15.5684 0.112497L14.2031 2.09297C13.3037 1.73847 12.3018 1.54218 11.25 1.54218C10.1982 1.54218 9.19629 1.73847 8.29687 2.09297L6.93164 0.115426C6.85547 0.00409803 6.70898 -0.0339879 6.60644 0.0392543C6.50391 0.109567 6.48633 0.256051 6.5625 0.373239L7.87793 2.27754C5.78613 3.25019 4.32129 5.09296 4.13379 7.24628H18.3721C18.1787 5.09003 16.7109 3.24726 14.6221 2.27461V2.27461ZM8.24414 5.27754C8.08827 5.27754 7.9359 5.23131 7.8063 5.14472C7.6767 5.05812 7.57569 4.93504 7.51604 4.79104C7.4564 4.64703 7.44079 4.48858 7.4712 4.3357C7.50161 4.18283 7.57666 4.0424 7.68688 3.93219C7.79709 3.82197 7.93752 3.74692 8.09039 3.71651C8.24327 3.6861 8.40172 3.7017 8.54573 3.76135C8.68973 3.821 8.81281 3.92201 8.89941 4.05161C8.98601 4.18121 9.03223 4.33358 9.03223 4.48945C9.03168 4.6983 8.94848 4.89843 8.8008 5.04611C8.65313 5.19379 8.45299 5.27699 8.24414 5.27754V5.27754ZM14.3496 5.27754C14.1937 5.27754 14.0414 5.23131 13.9118 5.14472C13.7822 5.05812 13.6812 4.93504 13.6215 4.79104C13.5619 4.64703 13.5463 4.48858 13.5767 4.3357C13.6071 4.18283 13.6821 4.0424 13.7923 3.93219C13.9026 3.82197 14.043 3.74692 14.1959 3.71651C14.3487 3.6861 14.5072 3.7017 14.6512 3.76135C14.7952 3.821 14.9183 3.92201 15.0049 4.05161C15.0915 4.18121 15.1377 4.33358 15.1377 4.48945C15.1372 4.6983 15.0539 4.89843 14.9063 5.04611C14.7586 5.19379 14.5585 5.27699 14.3496 5.27754ZM20.8945 8.22773C20.0098 8.22773 19.2949 8.95429 19.2949 9.85078V16.1906C19.2949 17.0842 20.0127 17.8137 20.8945 17.8137C21.7793 17.8137 22.4941 17.0871 22.4941 16.1906V9.84785C22.4971 8.95136 21.7822 8.22773 20.8945 8.22773ZM1.59961 8.22773C0.714843 8.22773 0 8.95429 0 9.85078V16.1906C0 17.0842 0.717773 17.8137 1.59961 17.8137C2.48437 17.8137 3.19922 17.0871 3.19922 16.1906V9.84785C3.19922 8.95136 2.48144 8.22773 1.59961 8.22773Z" fill="black"/>
</svg>
