<svg width="25" height="30" viewBox="0 0 25 30" fill="none" xmlns="http://www.w3.org/2000/svg">
<path d="M18.1536 0.0150131C18.0899 -0.0562368 15.793 0.0431382 13.7942 2.21251C11.7955 4.38001 12.103 6.86626 12.148 6.93001C12.193 6.99376 14.998 7.09314 16.7886 4.57126C18.5792 2.04939 18.2174 0.0881382 18.1536 0.0150131V0.0150131ZM24.3674 22.0144C24.2774 21.8344 20.008 19.7006 20.4055 15.5981C20.803 11.4938 23.5461 10.3688 23.5892 10.2469C23.6324 10.125 22.4699 8.76564 21.238 8.07751C20.3335 7.59236 19.3325 7.3144 18.3074 7.26376C18.1049 7.25814 17.4017 7.08564 15.9561 7.48126C15.0036 7.74189 12.8567 8.58564 12.2661 8.61939C11.6736 8.65314 9.91111 7.64064 8.01549 7.37251C6.80236 7.13814 5.51611 7.61814 4.59549 7.98751C3.67674 8.35501 1.92924 9.40126 0.706736 12.1819C-0.515764 14.9606 0.123611 19.3631 0.581111 20.7319C1.03861 22.0988 1.75299 24.3394 2.96799 25.9744C4.04799 27.8194 5.48049 29.1 6.07861 29.535C6.67674 29.97 8.36424 30.2588 9.53424 29.6606C10.4755 29.0831 12.1742 28.7513 12.8455 28.7756C13.5149 28.8 14.8349 29.0644 16.1867 29.7863C17.2574 30.1556 18.2699 30.0019 19.2842 29.5894C20.2986 29.175 21.7667 27.6038 23.4805 24.4181C24.1311 22.9369 24.4274 22.1363 24.3674 22.0144V22.0144Z" fill="black"/>
</svg>
