<svg width="25" height="25" viewBox="0 0 25 25" fill="none" xmlns="http://www.w3.org/2000/svg">
<path d="M12.1875 0C5.4375 0 0 5.4375 0 12.1875C0 18.9375 5.4375 24.375 12.1875 24.375C18.9375 24.375 24.375 18.9375 24.375 12.1875C24.375 10.875 24.1988 9.56813 23.73 8.34938L22.2075 9.84375C22.395 10.5938 22.5009 11.3438 22.5009 12.1875C22.5009 17.9062 17.9072 22.5 12.1884 22.5C6.46969 22.5 1.875 17.9062 1.875 12.1875C1.875 6.46875 6.46875 1.875 12.1875 1.875C15 1.875 17.5256 2.99437 19.3069 4.77562L20.625 3.4575C18.4688 1.30125 15.4688 0 12.1875 0ZM22.7625 4.0125L12.1875 14.5903L8.175 10.5778L6.825 11.925L11.5125 16.6125L12.1875 17.2556L12.8625 16.6116L24.1125 5.36156L22.7625 4.01156V4.0125Z" fill="#7BCCCC"/>
</svg>
