<svg width="21" height="27" viewBox="0 0 21 27" fill="none" xmlns="http://www.w3.org/2000/svg">
<path d="M19.2 10.5H16.5V6.9C16.5 2.5545 14.4975 0 10.5 0C6.501 0 4.5 2.5545 4.5 6.9V10.5H1.5C0.6705 10.5 0 11.469 0 12.2985V24C0 24.8235 0.642 25.7085 1.4265 25.9605L3.222 26.541C4.17435 26.8186 5.15839 26.9729 6.15 27H14.85C15.8413 26.9731 16.8249 26.8183 17.7765 26.5395L19.5705 25.959C20.3565 25.7085 21 24.8235 21 24V12.2985C21 11.469 20.028 10.5 19.2 10.5ZM13.5 10.5H7.5V6.2985C7.5 4.131 8.6955 3 10.5 3C12.3045 3 13.5 4.131 13.5 6.2985V10.5Z" fill="#7BCCCC"/>
</svg>
